<svg width="196" height="47" viewBox="0 0 196 47" fill="none" xmlns="http://www.w3.org/2000/svg">
<path d="M76.6675 30.3C75.6275 30.3 74.6875 30.08 73.8475 29.64C73.0075 29.2 72.3375 28.6 71.8375 27.84C71.3375 27.08 71.0675 26.23 71.0275 25.29V20.13C71.0675 19.19 71.3375 18.35 71.8375 17.61C72.3575 16.85 73.0375 16.26 73.8775 15.84C74.7175 15.42 75.6475 15.21 76.6675 15.21C78.0075 15.21 79.2075 15.54 80.2675 16.2C81.3275 16.86 82.1575 17.76 82.7575 18.9C83.3775 20.04 83.6875 21.33 83.6875 22.77C83.6875 24.19 83.3775 25.47 82.7575 26.61C82.1575 27.75 81.3275 28.65 80.2675 29.31C79.2075 29.97 78.0075 30.3 76.6675 30.3ZM68.6275 30V8.31H72.5575V19.08L71.8975 22.56L72.5275 26.1V30H68.6275ZM76.0075 26.67C76.7275 26.67 77.3575 26.51 77.8975 26.19C78.4575 25.85 78.8875 25.39 79.1875 24.81C79.5075 24.21 79.6675 23.52 79.6675 22.74C79.6675 21.98 79.5075 21.31 79.1875 20.73C78.8875 20.13 78.4575 19.67 77.8975 19.35C77.3375 19.01 76.6975 18.84 75.9775 18.84C75.2575 18.84 74.6175 19.01 74.0575 19.35C73.5175 19.67 73.0875 20.13 72.7675 20.73C72.4675 21.31 72.3175 21.98 72.3175 22.74C72.3175 23.52 72.4675 24.21 72.7675 24.81C73.0875 25.39 73.5275 25.85 74.0875 26.19C74.6475 26.51 75.2875 26.67 76.0075 26.67ZM92.3242 36.42C90.7842 36.42 89.4242 36.14 88.2442 35.58C87.0642 35.04 86.1242 34.27 85.4242 33.27L87.9142 30.78C88.4742 31.44 89.0942 31.94 89.7742 32.28C90.4742 32.64 91.3142 32.82 92.2942 32.82C93.5142 32.82 94.4742 32.51 95.1742 31.89C95.8942 31.27 96.2542 30.41 96.2542 29.31V25.68L96.9142 22.5L96.2842 19.32V15.51H100.184V29.25C100.184 30.69 99.8442 31.94 99.1642 33C98.5042 34.08 97.5842 34.92 96.4042 35.52C95.2242 36.12 93.8642 36.42 92.3242 36.42ZM92.1442 29.61C90.8442 29.61 89.6742 29.3 88.6342 28.68C87.5942 28.04 86.7742 27.17 86.1742 26.07C85.5942 24.97 85.3042 23.74 85.3042 22.38C85.3042 21.02 85.5942 19.8 86.1742 18.72C86.7742 17.64 87.5942 16.79 88.6342 16.17C89.6742 15.53 90.8442 15.21 92.1442 15.21C93.2242 15.21 94.1742 15.42 94.9942 15.84C95.8342 16.26 96.4942 16.84 96.9742 17.58C97.4542 18.3 97.7142 19.15 97.7542 20.13V24.69C97.7142 25.65 97.4442 26.51 96.9442 27.27C96.4642 28.01 95.8042 28.59 94.9642 29.01C94.1442 29.41 93.2042 29.61 92.1442 29.61ZM92.9242 26.04C93.6442 26.04 94.2642 25.89 94.7842 25.59C95.3242 25.27 95.7442 24.84 96.0442 24.3C96.3442 23.74 96.4942 23.11 96.4942 22.41C96.4942 21.69 96.3442 21.06 96.0442 20.52C95.7442 19.98 95.3242 19.56 94.7842 19.26C94.2642 18.94 93.6442 18.78 92.9242 18.78C92.2042 18.78 91.5742 18.94 91.0342 19.26C90.4942 19.56 90.0742 19.99 89.7742 20.55C89.4742 21.09 89.3242 21.71 89.3242 22.41C89.3242 23.09 89.4742 23.71 89.7742 24.27C90.0742 24.81 90.4942 25.24 91.0342 25.56C91.5742 25.88 92.2042 26.04 92.9242 26.04ZM106.337 30.3C105.617 30.3 105.027 30.06 104.567 29.58C104.107 29.1 103.877 28.51 103.877 27.81C103.877 27.11 104.107 26.52 104.567 26.04C105.027 25.56 105.617 25.32 106.337 25.32C107.037 25.32 107.617 25.56 108.077 26.04C108.537 26.52 108.767 27.11 108.767 27.81C108.767 28.51 108.537 29.1 108.077 29.58C107.617 30.06 107.037 30.3 106.337 30.3ZM120.525 30.3C119.485 30.3 118.545 30.08 117.705 29.64C116.865 29.2 116.195 28.6 115.695 27.84C115.195 27.08 114.925 26.23 114.885 25.29V20.13C114.925 19.19 115.195 18.35 115.695 17.61C116.215 16.85 116.895 16.26 117.735 15.84C118.575 15.42 119.505 15.21 120.525 15.21C121.865 15.21 123.065 15.54 124.125 16.2C125.185 16.86 126.015 17.76 126.615 18.9C127.235 20.04 127.545 21.33 127.545 22.77C127.545 24.19 127.235 25.47 126.615 26.61C126.015 27.75 125.185 28.65 124.125 29.31C123.065 29.97 121.865 30.3 120.525 30.3ZM112.485 30V8.31H116.415V19.08L115.755 22.56L116.385 26.1V30H112.485ZM119.865 26.67C120.585 26.67 121.215 26.51 121.755 26.19C122.315 25.85 122.745 25.39 123.045 24.81C123.365 24.21 123.525 23.52 123.525 22.74C123.525 21.98 123.365 21.31 123.045 20.73C122.745 20.13 122.315 19.67 121.755 19.35C121.195 19.01 120.555 18.84 119.835 18.84C119.115 18.84 118.475 19.01 117.915 19.35C117.375 19.67 116.945 20.13 116.625 20.73C116.325 21.31 116.175 21.98 116.175 22.74C116.175 23.52 116.325 24.21 116.625 24.81C116.945 25.39 117.385 25.85 117.945 26.19C118.505 26.51 119.145 26.67 119.865 26.67ZM136.302 30.3C135.022 30.3 133.882 30.03 132.882 29.49C131.902 28.95 131.132 28.2 130.572 27.24C130.012 26.28 129.732 25.17 129.732 23.91V15.51H133.692V23.82C133.692 24.42 133.792 24.94 133.992 25.38C134.192 25.8 134.492 26.12 134.892 26.34C135.292 26.56 135.762 26.67 136.302 26.67C137.122 26.67 137.762 26.42 138.222 25.92C138.682 25.42 138.912 24.72 138.912 23.82V15.51H142.842V23.91C142.842 25.19 142.562 26.31 142.002 27.27C141.462 28.23 140.692 28.98 139.692 29.52C138.712 30.04 137.582 30.3 136.302 30.3ZM152.091 30.3C150.751 30.3 149.551 29.97 148.491 29.31C147.431 28.65 146.591 27.75 145.971 26.61C145.371 25.47 145.071 24.19 145.071 22.77C145.071 21.33 145.371 20.04 145.971 18.9C146.591 17.76 147.421 16.86 148.461 16.2C149.521 15.54 150.731 15.21 152.091 15.21C153.131 15.21 154.061 15.42 154.881 15.84C155.721 16.26 156.391 16.85 156.891 17.61C157.411 18.35 157.691 19.19 157.731 20.13V25.29C157.691 26.23 157.421 27.08 156.921 27.84C156.421 28.6 155.751 29.2 154.911 29.64C154.071 30.08 153.131 30.3 152.091 30.3ZM152.751 26.67C153.491 26.67 154.131 26.51 154.671 26.19C155.231 25.85 155.661 25.39 155.961 24.81C156.281 24.21 156.441 23.52 156.441 22.74C156.441 21.98 156.281 21.31 155.961 20.73C155.661 20.13 155.231 19.67 154.671 19.35C154.131 19.01 153.501 18.84 152.781 18.84C152.041 18.84 151.391 19.01 150.831 19.35C150.291 19.69 149.861 20.15 149.541 20.73C149.241 21.31 149.091 21.98 149.091 22.74C149.091 23.52 149.241 24.21 149.541 24.81C149.861 25.39 150.301 25.85 150.861 26.19C151.421 26.51 152.051 26.67 152.751 26.67ZM160.131 30H156.231V26.1L156.861 22.56L156.201 19.08V8.31H160.131V30ZM169.728 30.3C168.388 30.3 167.188 29.97 166.128 29.31C165.068 28.65 164.228 27.75 163.608 26.61C163.008 25.47 162.708 24.19 162.708 22.77C162.708 21.33 163.008 20.04 163.608 18.9C164.228 17.76 165.058 16.86 166.098 16.2C167.158 15.54 168.368 15.21 169.728 15.21C170.768 15.21 171.698 15.42 172.518 15.84C173.358 16.26 174.028 16.85 174.528 17.61C175.048 18.35 175.328 19.19 175.368 20.13V25.29C175.328 26.23 175.058 27.08 174.558 27.84C174.058 28.6 173.388 29.2 172.548 29.64C171.708 30.08 170.768 30.3 169.728 30.3ZM170.388 26.67C171.128 26.67 171.768 26.51 172.308 26.19C172.868 25.85 173.298 25.39 173.598 24.81C173.918 24.21 174.078 23.52 174.078 22.74C174.078 21.98 173.918 21.31 173.598 20.73C173.298 20.13 172.868 19.67 172.308 19.35C171.768 19.01 171.138 18.84 170.418 18.84C169.678 18.84 169.028 19.01 168.468 19.35C167.928 19.69 167.498 20.15 167.178 20.73C166.878 21.31 166.728 21.98 166.728 22.74C166.728 23.52 166.878 24.21 167.178 24.81C167.498 25.39 167.938 25.85 168.498 26.19C169.058 26.51 169.688 26.67 170.388 26.67ZM177.768 30H173.868V26.1L174.498 22.56L173.838 19.08V8.31H177.768V30ZM185.805 30.12L179.745 15.51H184.005L188.025 26.67H186.585L190.755 15.51H195.045L188.595 30.12H185.805ZM181.785 36.06L186.195 26.73L188.595 30.12L185.955 36.06H181.785Z" fill="black"/>
<path d="M18.7282 2H44.2018L25.4736 29.7589H0L18.7282 2Z" fill="#007AFF"/>
<path d="M18.8437 28.3314L11.5899 39.0831H38.2718L57 11.3242H37.3071L25.8327 28.3314H18.8437Z" fill="#312ECB"/>
<path d="M30.7282 19H56.2018L37.4736 46.7589H12L30.7282 19Z" fill="#007AFF"/>
</svg>
